# xmcd
#
# Track frame offsets:
# 150
# 12847
# 64997
# 93255
# 117292
# 132320
# 172710
# 216837
# 229805
# 283202
#
# Disc length: 4118 seconds
#
# Revision: 1
# Processed by: cddbd v1.5.1PL0 Copyright (c) Steve Scherf et al.
# Submitted via: Easy CD Ripper v2.27
#
DISCID=8910140a
DTITLE=Miles Davis - The Columbia Years 1955-1985 (1)
DYEAR=1988
DGENRE=Blues
TTITLE0=Generique - M. Davis
TTITLE1=All Blues - M. Davis
TTITLE2=Eighty-One - M. Davis and R. Carter
TTITLE3=Blues for Pablo - G. Evans
TTITLE4=Summertime - G. Gershwin
TTITLE5=Straight, No Chaser - T. Monk
TTITLE6=Footprints - W. Shorter
TTITLE7=Florence Sur Les Champs Élysées - M. Davis
TTITLE8=I Thought About You - J. Mercer and J. Van Heusen
TTITLE9=Someday My Prince Will Come - F. E. Churchill and L. Morey
EXTD=
EXTT0=
EXTT1=
EXTT2=
EXTT3=
EXTT4=
EXTT5=
EXTT6=
EXTT7=
EXTT8=
EXTT9=
PLAYORDER=
